# xmcd
#
# Track frame offsets: 
#        150
#        17480
#        29942
#        49644
#        62324
#        76070
#        93993
#        108891
#        120942
#        133550
#        149958
#        170118
#        184258
#        198293
#        208538
#        230489
#        246087
#        259307
#
# Disc length: 3588 seconds
#
# Revision: 0
# Processed by: cddbd v1.5.2PL0 Copyright (c) Steve Scherf et al.
# Submitted via: ExactAudioCopyFreeDBPlugin 1.0
#
DISCID=fa0e0212
DTITLE=Various Artist - Country Original Disc 3
DYEAR=1900
DGENRE=
TTITLE0=John Denver - A Country Girl Paris
TTITLE1=Johnny Lee - Bet Your Heart on Me
TTITLE2=Dan Fogelberg - Leader of The Band
TTITLE3=Bobby Bare - Four Strong Winds
TTITLE4=Don Williams - We Should be Together
TTITLE5=Marty Robbins - Big Iron
TTITLE6=Jeannie C. Riley - Harper Valley P.T.A
TTITLE7=Johnny Cash - Ring of Fire
TTITLE8=Hank Williams - Move It on Over
TTITLE9=Keith Whitley - Miamy, My Army
TTITLE10=Lobo - Yellow River
TTITLE11=Gary Stewart - Backsliders Wine
TTITLE12=The Kingston Trio - Tom Dooley
TTITLE13=Merle Haggard - Moma Tried
TTITLE14=Willie Nelson - The City of New Orleans
TTITLE15=Paul Overstreet - Seein My Father in Me
TTITLE16=Merle Haggard - Figthing SSide of Me
TTITLE17=C.C.R. - Tearin up The Country
EXTD=
EXTT0=
EXTT1=
EXTT2=
EXTT3=
EXTT4=
EXTT5=
EXTT6=
EXTT7=
EXTT8=
EXTT9=
EXTT10=
EXTT11=
EXTT12=
EXTT13=
EXTT14=
EXTT15=
EXTT16=
EXTT17=
PLAYORDER=
